<svg xmlns="http://www.w3.org/2000/svg" width="24" height="24" viewBox="0 0 24 24">
  <path id="paperclip-solid" d="M2.317,21.85a6.7,6.7,0,0,1,.074-10.2L13.628,1.593a6.608,6.608,0,0,1,8.607,0,4.981,4.981,0,0,1,0,7.607l-9.8,8.759a4.4,4.4,0,0,1-5.785-.047A3.313,3.313,0,0,1,6.733,12.9l7.7-6.883A.946.946,0,0,1,15.646,6l1.225,1.049a.686.686,0,0,1,.013,1.061L9.184,15a.577.577,0,0,0-.035.857.628.628,0,0,0,.84.008l9.8-8.759a2.241,2.241,0,0,0,0-3.412,2.831,2.831,0,0,0-3.7,0L4.843,13.748a3.961,3.961,0,0,0-.064,6.015,5.033,5.033,0,0,0,6.592.013l9.217-8.25a.946.946,0,0,1,1.212-.012l1.226,1.048a.686.686,0,0,1,.014,1.061l-9.217,8.25A8.808,8.808,0,0,1,2.317,21.85Z" transform="translate(0 0)"/>
</svg>
