<svg xmlns="http://www.w3.org/2000/svg" width="24" height="24" viewBox="0 0 24 24">
  <path id="star-regular" d="M43.27,8.026l-6.554-1L33.787.822a1.41,1.41,0,0,0-2.575,0L28.283,7.028l-6.554,1a1.519,1.519,0,0,0-.794,2.559l4.742,4.828-1.121,6.819a1.449,1.449,0,0,0,2.081,1.579l5.863-3.22,5.863,3.22a1.45,1.45,0,0,0,2.081-1.579l-1.121-6.819,4.742-4.828a1.519,1.519,0,0,0-.794-2.559Zm-6.258,6.6,1.063,6.487L32.5,18.051l-5.576,3.061,1.063-6.487-4.513-4.593,6.236-.947L32.5,3.18l2.79,5.906,6.236.947-4.513,4.593Z" transform="translate(-20.5 0.013)"/>
</svg>
