<svg xmlns="http://www.w3.org/2000/svg" width="24" height="24" viewBox="0 0 24 24">
  <path id="bell-solid" d="M12,24a3.235,3.235,0,0,0,3.427-3H8.572A3.235,3.235,0,0,0,12,24Zm11.539-7.018c-1.035-.973-2.972-2.437-2.972-7.232,0-3.642-2.919-6.558-6.854-7.273V1.5A1.617,1.617,0,0,0,12,0a1.617,1.617,0,0,0-1.713,1.5v.977C6.351,3.192,3.432,6.108,3.432,9.75c0,4.8-1.937,6.259-2.972,7.232A1.37,1.37,0,0,0,0,18a1.617,1.617,0,0,0,1.72,1.5H22.28A1.616,1.616,0,0,0,24,18,1.369,1.369,0,0,0,23.538,16.982Z" transform="translate(0.001)"/>
</svg>
