<svg xmlns="http://www.w3.org/2000/svg" xmlns:xlink="http://www.w3.org/1999/xlink" width="24" height="24" viewBox="0 0 24 24">
  <defs>
    <clipPath id="clip-ellipsis">
      <rect width="24" height="24"/>
    </clipPath>
  </defs>
  <g id="ellipsis" clip-path="url(#clip-ellipsis)">
    <path id="ellipsis-v-solid" d="M26.5,13.677A2.415,2.415,0,0,1,29,16a2.507,2.507,0,0,1-5,0A2.415,2.415,0,0,1,26.5,13.677ZM24,10.323a2.507,2.507,0,0,0,5,0,2.507,2.507,0,0,0-5,0Zm0,11.355a2.507,2.507,0,1,0,2.5-2.323A2.415,2.415,0,0,0,24,21.677Z" transform="translate(-14 -4)"/>
  </g>
</svg>
